<svg xmlns="http://www.w3.org/2000/svg" xmlns:xlink="http://www.w3.org/1999/xlink" width="500" zoomAndPan="magnify" viewBox="0 0 375 374.999991" height="500" preserveAspectRatio="xMidYMid meet" version="1.0"><defs><clipPath id="e7f9780a62"><path d="M 0.121094 186.214844 L 125.660156 186.214844 L 125.660156 294.195312 L 0.121094 294.195312 Z M 0.121094 186.214844 " clip-rule="nonzero"/></clipPath><clipPath id="da9dc203c9"><path d="M 62 80.445312 L 250 80.445312 L 250 294.195312 L 62 294.195312 Z M 62 80.445312 " clip-rule="nonzero"/></clipPath><clipPath id="bc7b5525fe"><path d="M 187.265625 80.445312 L 374.875 80.445312 L 374.875 294.195312 L 187.265625 294.195312 Z M 187.265625 80.445312 " clip-rule="nonzero"/></clipPath></defs><g clip-path="url(#e7f9780a62)"><path fill="#109594" d="M 93.8125 186.332031 L 31.394531 186.332031 L 0.121094 240.496094 L 31.394531 294.550781 L 93.8125 294.550781 L 125.078125 240.496094 L 93.8125 186.332031 " fill-opacity="1" fill-rule="nonzero"/></g><g clip-path="url(#da9dc203c9)"><path fill="#1836b2" d="M 230.265625 206.328125 L 230.277344 206.324219 L 228.167969 202.679688 L 218.769531 186.332031 L 218.726562 186.332031 L 176.6875 113.566406 L 176.679688 113.574219 L 156.234375 78.230469 L 93.8125 78.230469 L 62.542969 132.28125 L 83.585938 168.660156 L 83.582031 168.660156 L 135.097656 257.882812 L 156.234375 294.550781 L 218.769531 294.550781 L 249.917969 240.496094 L 230.265625 206.328125 " fill-opacity="1" fill-rule="nonzero"/></g><g clip-path="url(#bc7b5525fe)"><path fill="#00f9a5" d="M 353.632812 203.699219 L 353.722656 203.652344 L 300.25 110.890625 L 300.128906 110.96875 L 281.1875 78.230469 L 218.769531 78.230469 L 187.5 132.28125 L 218.769531 186.332031 L 218.789062 186.332031 L 250.015625 240.339844 L 249.917969 240.496094 L 281.1875 294.550781 L 343.609375 294.550781 L 374.875 240.496094 L 353.632812 203.699219 " fill-opacity="1" fill-rule="nonzero"/></g></svg>